# xmcd CD database file
#
# Track frame offsets:
#	183
#	37970
#	80610
#	142373
#	205358
#	230840
#
# Disc length: 3609 seconds
#
# Revision: 0
# Processed by: cddbd v1.5.1PL0 Copyright (c) Steve Scherf et al.
# Submitted via: CDex 1.51
#
DISCID=580e1706
DTITLE=STEPHAN KURMANN STRINGS - ALIVE IN MONTREUX 1991
DYEAR=1991
DGENRE=Jazz
TTITLE0=HARBOURG BRIDGE
TTITLE1=MOONCLOUDS
TTITLE2=SKETCSHES 1989 PART II
TTITLE3=ODYSSEY IN BLUES and RHYTHM
TTITLE4=SKETCSHES 1989 PART I
TTITLE5=BLUE SKY
EXTD=YEAR: 1991
EXTT0=
EXTT1=
EXTT2=
EXTT3=
EXTT4=
EXTT5=
PLAYORDER=
